<mxfile host="app.diagrams.net" modified="2024-07-29T12:58:44.514Z" agent="Mozilla/5.0 (Windows NT 10.0; Win64; x64) AppleWebKit/537.36 (KHTML, like Gecko) Chrome/126.0.0.0 Safari/537.36" etag="dS2fxx52o2Co30Y13h6V" version="24.7.1" type="device">
  <diagram name="Page-1" id="7Q2s4VZRWMJ74gB4JqCX">
    <mxGraphModel dx="1434" dy="719" grid="1" gridSize="10" guides="1" tooltips="1" connect="1" arrows="1" fold="1" page="1" pageScale="1" pageWidth="827" pageHeight="1169" math="0" shadow="0">
      <root>
        <mxCell id="0" />
        <mxCell id="1" parent="0" />
        <mxCell id="IZEF8j3LVq1unYXU-ZDd-1" value="Hayvan Sahibi" style="whiteSpace=wrap;html=1;align=center;" parent="1" vertex="1">
          <mxGeometry x="2067.64" y="958.3600000000001" width="100" height="40" as="geometry" />
        </mxCell>
        <mxCell id="IZEF8j3LVq1unYXU-ZDd-2" value="İlaçlar&lt;span style=&quot;color: rgba(0, 0, 0, 0); font-family: monospace; font-size: 0px; text-align: start; text-wrap: nowrap;&quot;&gt;%3CmxGraphModel%3E%3Croot%3E%3CmxCell%20id%3D%220%22%2F%3E%3CmxCell%20id%3D%221%22%20parent%3D%220%22%2F%3E%3CmxCell%20id%3D%222%22%20value%3D%22Oda%22%20style%3D%22whiteSpace%3Dwrap%3Bhtml%3D1%3Balign%3Dcenter%3B%22%20vertex%3D%221%22%20parent%3D%221%22%3E%3CmxGeometry%20x%3D%22410%22%20y%3D%22320%22%20width%3D%22100%22%20height%3D%2240%22%20as%3D%22geometry%22%2F%3E%3C%2FmxCell%3E%3C%2Froot%3E%3C%2FmxGraphModel%3E&lt;/span&gt;" style="whiteSpace=wrap;html=1;align=center;" parent="1" vertex="1">
          <mxGeometry x="750" y="1408.3600000000001" width="100" height="40" as="geometry" />
        </mxCell>
        <mxCell id="IZEF8j3LVq1unYXU-ZDd-3" value="Veteriner" style="whiteSpace=wrap;html=1;align=center;" parent="1" vertex="1">
          <mxGeometry x="1307.41" y="1015" width="100" height="40" as="geometry" />
        </mxCell>
        <mxCell id="IZEF8j3LVq1unYXU-ZDd-5" value="Hasta Hayvan" style="shape=ext;margin=3;double=1;whiteSpace=wrap;html=1;align=center;" parent="1" vertex="1">
          <mxGeometry x="1615" y="1802.83" width="100" height="40" as="geometry" />
        </mxCell>
        <mxCell id="IZEF8j3LVq1unYXU-ZDd-6" value="İsim" style="ellipse;whiteSpace=wrap;html=1;align=center;" parent="1" vertex="1">
          <mxGeometry x="2140" y="830" width="100" height="40" as="geometry" />
        </mxCell>
        <mxCell id="IZEF8j3LVq1unYXU-ZDd-7" value="İsim" style="ellipse;whiteSpace=wrap;html=1;align=center;" parent="1" vertex="1">
          <mxGeometry x="1615" y="1928.2799999999997" width="100" height="40" as="geometry" />
        </mxCell>
        <mxCell id="IZEF8j3LVq1unYXU-ZDd-8" value="Adres" style="ellipse;whiteSpace=wrap;html=1;align=center;" parent="1" vertex="1">
          <mxGeometry x="2270" y="890" width="100" height="40" as="geometry" />
        </mxCell>
        <mxCell id="IZEF8j3LVq1unYXU-ZDd-9" value="İlçe" style="ellipse;whiteSpace=wrap;html=1;align=center;" parent="1" vertex="1">
          <mxGeometry x="2390" y="798" width="100" height="40" as="geometry" />
        </mxCell>
        <mxCell id="IZEF8j3LVq1unYXU-ZDd-10" value="Mahalle" style="ellipse;whiteSpace=wrap;html=1;align=center;" parent="1" vertex="1">
          <mxGeometry x="2400" y="910" width="100" height="40" as="geometry" />
        </mxCell>
        <mxCell id="IZEF8j3LVq1unYXU-ZDd-11" value="Tarih" style="ellipse;whiteSpace=wrap;html=1;align=center;" parent="1" vertex="1">
          <mxGeometry x="1466.66" y="1680" width="100" height="40" as="geometry" />
        </mxCell>
        <mxCell id="IZEF8j3LVq1unYXU-ZDd-13" value="" style="endArrow=none;html=1;rounded=0;entryX=1;entryY=0.75;entryDx=0;entryDy=0;" parent="1" source="IZEF8j3LVq1unYXU-ZDd-39" target="IZEF8j3LVq1unYXU-ZDd-5" edge="1">
          <mxGeometry relative="1" as="geometry">
            <mxPoint x="1915" y="1712.83" as="sourcePoint" />
            <mxPoint x="2075" y="1712.83" as="targetPoint" />
          </mxGeometry>
        </mxCell>
        <mxCell id="IZEF8j3LVq1unYXU-ZDd-14" value="" style="endArrow=none;html=1;rounded=0;exitX=0.5;exitY=1;exitDx=0;exitDy=0;" parent="1" source="IZEF8j3LVq1unYXU-ZDd-5" target="IZEF8j3LVq1unYXU-ZDd-7" edge="1">
          <mxGeometry relative="1" as="geometry">
            <mxPoint x="1925" y="1722.83" as="sourcePoint" />
            <mxPoint x="2085" y="1722.83" as="targetPoint" />
          </mxGeometry>
        </mxCell>
        <mxCell id="IZEF8j3LVq1unYXU-ZDd-15" value="" style="endArrow=none;html=1;rounded=0;exitX=1;exitY=0;exitDx=0;exitDy=0;" parent="1" source="IZEF8j3LVq1unYXU-ZDd-8" target="IZEF8j3LVq1unYXU-ZDd-9" edge="1">
          <mxGeometry relative="1" as="geometry">
            <mxPoint x="1715" y="833.3600000000001" as="sourcePoint" />
            <mxPoint x="1875" y="833.3600000000001" as="targetPoint" />
          </mxGeometry>
        </mxCell>
        <mxCell id="IZEF8j3LVq1unYXU-ZDd-16" value="" style="endArrow=none;html=1;rounded=0;" parent="1" source="IZEF8j3LVq1unYXU-ZDd-8" target="IZEF8j3LVq1unYXU-ZDd-10" edge="1">
          <mxGeometry relative="1" as="geometry">
            <mxPoint x="1611" y="967.3600000000001" as="sourcePoint" />
            <mxPoint x="1885" y="843.3600000000001" as="targetPoint" />
          </mxGeometry>
        </mxCell>
        <mxCell id="IZEF8j3LVq1unYXU-ZDd-17" value="" style="endArrow=none;html=1;rounded=0;exitX=1;exitY=0.25;exitDx=0;exitDy=0;" parent="1" source="IZEF8j3LVq1unYXU-ZDd-1" target="IZEF8j3LVq1unYXU-ZDd-8" edge="1">
          <mxGeometry relative="1" as="geometry">
            <mxPoint x="1810" y="928.3600000000001" as="sourcePoint" />
            <mxPoint x="1970" y="928.3600000000001" as="targetPoint" />
          </mxGeometry>
        </mxCell>
        <mxCell id="IZEF8j3LVq1unYXU-ZDd-18" value="" style="endArrow=none;html=1;rounded=0;shape=link;" parent="1" source="IZEF8j3LVq1unYXU-ZDd-137" target="IZEF8j3LVq1unYXU-ZDd-143" edge="1">
          <mxGeometry relative="1" as="geometry">
            <mxPoint x="949.7926857675288" y="1811.7200000000003" as="sourcePoint" />
            <mxPoint x="881.7138268506906" y="1680.64617314931" as="targetPoint" />
          </mxGeometry>
        </mxCell>
        <mxCell id="IZEF8j3LVq1unYXU-ZDd-19" value="(1,N)" style="edgeLabel;html=1;align=center;verticalAlign=middle;resizable=0;points=[];" parent="IZEF8j3LVq1unYXU-ZDd-18" vertex="1" connectable="0">
          <mxGeometry x="0.035" y="-3" relative="1" as="geometry">
            <mxPoint x="-2" y="-43" as="offset" />
          </mxGeometry>
        </mxCell>
        <mxCell id="IZEF8j3LVq1unYXU-ZDd-20" value="" style="endArrow=none;html=1;rounded=0;entryX=0.5;entryY=1;entryDx=0;entryDy=0;" parent="1" source="IZEF8j3LVq1unYXU-ZDd-11" target="IZEF8j3LVq1unYXU-ZDd-164" edge="1">
          <mxGeometry relative="1" as="geometry">
            <mxPoint x="1267.4099999999999" y="1770" as="sourcePoint" />
            <mxPoint x="1485" y="1650" as="targetPoint" />
          </mxGeometry>
        </mxCell>
        <mxCell id="IZEF8j3LVq1unYXU-ZDd-21" value="isim" style="ellipse;whiteSpace=wrap;html=1;align=center;" parent="1" vertex="1">
          <mxGeometry x="1280.0000000000005" y="910" width="100" height="40" as="geometry" />
        </mxCell>
        <mxCell id="IZEF8j3LVq1unYXU-ZDd-22" value="" style="endArrow=none;html=1;rounded=0;exitX=0.25;exitY=0;exitDx=0;exitDy=0;" parent="1" source="IZEF8j3LVq1unYXU-ZDd-3" target="IZEF8j3LVq1unYXU-ZDd-21" edge="1">
          <mxGeometry relative="1" as="geometry">
            <mxPoint x="1467.4100000000003" y="977" as="sourcePoint" />
            <mxPoint x="1507.4100000000003" y="965" as="targetPoint" />
          </mxGeometry>
        </mxCell>
        <mxCell id="IZEF8j3LVq1unYXU-ZDd-24" value="" style="endArrow=none;html=1;rounded=0;exitX=0.75;exitY=0;exitDx=0;exitDy=0;" parent="1" source="IZEF8j3LVq1unYXU-ZDd-1" target="IZEF8j3LVq1unYXU-ZDd-6" edge="1">
          <mxGeometry relative="1" as="geometry">
            <mxPoint x="2207.64" y="1098.3600000000001" as="sourcePoint" />
            <mxPoint x="2367.64" y="1098.3600000000001" as="targetPoint" />
          </mxGeometry>
        </mxCell>
        <mxCell id="IZEF8j3LVq1unYXU-ZDd-25" value="" style="endArrow=none;html=1;rounded=0;shape=link;entryX=0.5;entryY=1;entryDx=0;entryDy=0;exitX=0.5;exitY=0;exitDx=0;exitDy=0;" parent="1" source="IZEF8j3LVq1unYXU-ZDd-27" target="IZEF8j3LVq1unYXU-ZDd-1" edge="1">
          <mxGeometry relative="1" as="geometry">
            <mxPoint x="1615" y="2393.36" as="sourcePoint" />
            <mxPoint x="2603.8559999999998" y="1391.7199999999998" as="targetPoint" />
          </mxGeometry>
        </mxCell>
        <mxCell id="IZEF8j3LVq1unYXU-ZDd-26" value="&lt;span style=&quot;font-size: 14px;&quot;&gt;(1, N)&lt;/span&gt;" style="edgeLabel;html=1;align=center;verticalAlign=middle;resizable=0;points=[];" parent="IZEF8j3LVq1unYXU-ZDd-25" connectable="0" vertex="1">
          <mxGeometry x="-0.0725" y="-3" relative="1" as="geometry">
            <mxPoint x="-120" y="296" as="offset" />
          </mxGeometry>
        </mxCell>
        <mxCell id="IZEF8j3LVq1unYXU-ZDd-27" value="Sahip" style="shape=rhombus;double=1;perimeter=rhombusPerimeter;whiteSpace=wrap;html=1;align=center;" parent="1" vertex="1">
          <mxGeometry x="1970" y="1530" width="120" height="60" as="geometry" />
        </mxCell>
        <mxCell id="IZEF8j3LVq1unYXU-ZDd-28" value="&lt;span&gt;İlaçID&lt;/span&gt;" style="ellipse;whiteSpace=wrap;html=1;align=center;fontStyle=4" parent="1" vertex="1">
          <mxGeometry x="680" y="1306.3600000000001" width="100" height="40" as="geometry" />
        </mxCell>
        <mxCell id="IZEF8j3LVq1unYXU-ZDd-29" value="" style="endArrow=none;html=1;rounded=0;" parent="1" source="IZEF8j3LVq1unYXU-ZDd-2" target="IZEF8j3LVq1unYXU-ZDd-28" edge="1">
          <mxGeometry relative="1" as="geometry">
            <mxPoint x="180" y="1398.3600000000001" as="sourcePoint" />
            <mxPoint x="340" y="1398.3600000000001" as="targetPoint" />
          </mxGeometry>
        </mxCell>
        <mxCell id="IZEF8j3LVq1unYXU-ZDd-30" value="İsim" style="ellipse;whiteSpace=wrap;html=1;align=center;" parent="1" vertex="1">
          <mxGeometry x="890" y="1338.3600000000001" width="100" height="40" as="geometry" />
        </mxCell>
        <mxCell id="IZEF8j3LVq1unYXU-ZDd-31" value="" style="endArrow=none;html=1;rounded=0;" parent="1" source="IZEF8j3LVq1unYXU-ZDd-2" target="IZEF8j3LVq1unYXU-ZDd-30" edge="1">
          <mxGeometry relative="1" as="geometry">
            <mxPoint x="180" y="1398.3600000000001" as="sourcePoint" />
            <mxPoint x="340" y="1398.3600000000001" as="targetPoint" />
          </mxGeometry>
        </mxCell>
        <mxCell id="IZEF8j3LVq1unYXU-ZDd-32" value="" style="endArrow=none;html=1;rounded=0;" parent="1" source="IZEF8j3LVq1unYXU-ZDd-33" target="IZEF8j3LVq1unYXU-ZDd-2" edge="1">
          <mxGeometry relative="1" as="geometry">
            <mxPoint x="670" y="1388.3600000000001" as="sourcePoint" />
            <mxPoint x="350" y="1408.3600000000001" as="targetPoint" />
          </mxGeometry>
        </mxCell>
        <mxCell id="IZEF8j3LVq1unYXU-ZDd-33" value="Fiyat" style="ellipse;whiteSpace=wrap;html=1;align=center;" parent="1" vertex="1">
          <mxGeometry x="600" y="1390" width="100" height="40" as="geometry" />
        </mxCell>
        <mxCell id="IZEF8j3LVq1unYXU-ZDd-36" value="" style="endArrow=none;html=1;rounded=0;exitX=0;exitY=0.25;exitDx=0;exitDy=0;entryX=1;entryY=1;entryDx=0;entryDy=0;" parent="1" source="IZEF8j3LVq1unYXU-ZDd-137" target="IZEF8j3LVq1unYXU-ZDd-138" edge="1">
          <mxGeometry relative="1" as="geometry">
            <mxPoint x="921.9047619047624" y="1811.7200000000003" as="sourcePoint" />
            <mxPoint x="791.01934460451" y="1742.4059185784172" as="targetPoint" />
          </mxGeometry>
        </mxCell>
        <mxCell id="IZEF8j3LVq1unYXU-ZDd-38" value="" style="group" parent="1" vertex="1" connectable="0">
          <mxGeometry x="1830" y="1820" width="100" height="40" as="geometry" />
        </mxCell>
        <mxCell id="IZEF8j3LVq1unYXU-ZDd-39" value="HastaID" style="ellipse;whiteSpace=wrap;html=1;align=center;" parent="IZEF8j3LVq1unYXU-ZDd-38" vertex="1">
          <mxGeometry width="100" height="40" as="geometry" />
        </mxCell>
        <mxCell id="IZEF8j3LVq1unYXU-ZDd-40" value="" style="endArrow=none;html=1;rounded=0;dashed=1;dashPattern=1 2;" parent="IZEF8j3LVq1unYXU-ZDd-38" edge="1">
          <mxGeometry relative="1" as="geometry">
            <mxPoint x="30" y="30" as="sourcePoint" />
            <mxPoint x="70" y="30" as="targetPoint" />
          </mxGeometry>
        </mxCell>
        <mxCell id="IZEF8j3LVq1unYXU-ZDd-41" value="" style="resizable=0;html=1;whiteSpace=wrap;align=right;verticalAlign=bottom;" parent="IZEF8j3LVq1unYXU-ZDd-40" connectable="0" vertex="1">
          <mxGeometry x="1" relative="1" as="geometry" />
        </mxCell>
        <mxCell id="IZEF8j3LVq1unYXU-ZDd-42" value="&lt;div&gt;&lt;br/&gt;&lt;/div&gt;" style="endArrow=none;html=1;rounded=0;entryX=1;entryY=0.5;entryDx=0;entryDy=0;" parent="1" source="IZEF8j3LVq1unYXU-ZDd-1" target="IZEF8j3LVq1unYXU-ZDd-164" edge="1">
          <mxGeometry x="0.9436" y="-20" relative="1" as="geometry">
            <mxPoint x="2090" y="907.3600000000001" as="sourcePoint" />
            <mxPoint x="1924.7879009059293" y="1363.797722725516" as="targetPoint" />
            <mxPoint as="offset" />
          </mxGeometry>
        </mxCell>
        <mxCell id="IZEF8j3LVq1unYXU-ZDd-165" value="(0,M)" style="edgeLabel;html=1;align=center;verticalAlign=middle;resizable=0;points=[];" parent="IZEF8j3LVq1unYXU-ZDd-42" vertex="1" connectable="0">
          <mxGeometry x="0.9134" y="4" relative="1" as="geometry">
            <mxPoint x="-26" y="-8" as="offset" />
          </mxGeometry>
        </mxCell>
        <mxCell id="IZEF8j3LVq1unYXU-ZDd-44" value="Yaş" style="ellipse;whiteSpace=wrap;html=1;align=center;" parent="1" vertex="1">
          <mxGeometry x="1385" y="1820" width="100" height="40" as="geometry" />
        </mxCell>
        <mxCell id="IZEF8j3LVq1unYXU-ZDd-45" value="Kilo" style="ellipse;whiteSpace=wrap;html=1;align=center;" parent="1" vertex="1">
          <mxGeometry x="1730" y="1899.9999999999995" width="100" height="40" as="geometry" />
        </mxCell>
        <mxCell id="IZEF8j3LVq1unYXU-ZDd-46" value="Boy" style="ellipse;whiteSpace=wrap;html=1;align=center;" parent="1" vertex="1">
          <mxGeometry x="1407.41" y="1869.9999999999995" width="100" height="40" as="geometry" />
        </mxCell>
        <mxCell id="IZEF8j3LVq1unYXU-ZDd-47" value="" style="endArrow=none;html=1;rounded=0;entryX=0.75;entryY=1;entryDx=0;entryDy=0;" parent="1" source="IZEF8j3LVq1unYXU-ZDd-45" target="IZEF8j3LVq1unYXU-ZDd-5" edge="1">
          <mxGeometry relative="1" as="geometry">
            <mxPoint x="1905" y="1392.83" as="sourcePoint" />
            <mxPoint x="2065" y="1392.83" as="targetPoint" />
          </mxGeometry>
        </mxCell>
        <mxCell id="IZEF8j3LVq1unYXU-ZDd-48" value="" style="endArrow=none;html=1;rounded=0;entryX=0;entryY=1;entryDx=0;entryDy=0;" parent="1" source="IZEF8j3LVq1unYXU-ZDd-46" target="IZEF8j3LVq1unYXU-ZDd-5" edge="1">
          <mxGeometry relative="1" as="geometry">
            <mxPoint x="1522" y="1809.83" as="sourcePoint" />
            <mxPoint x="1625" y="1825.83" as="targetPoint" />
          </mxGeometry>
        </mxCell>
        <mxCell id="IZEF8j3LVq1unYXU-ZDd-49" value="" style="endArrow=none;html=1;rounded=0;entryX=0;entryY=0.75;entryDx=0;entryDy=0;" parent="1" source="IZEF8j3LVq1unYXU-ZDd-44" target="IZEF8j3LVq1unYXU-ZDd-5" edge="1">
          <mxGeometry relative="1" as="geometry">
            <mxPoint x="1905" y="1392.83" as="sourcePoint" />
            <mxPoint x="2065" y="1392.83" as="targetPoint" />
          </mxGeometry>
        </mxCell>
        <mxCell id="IZEF8j3LVq1unYXU-ZDd-50" value="" style="shape=link;html=1;rounded=0;" parent="1" source="IZEF8j3LVq1unYXU-ZDd-5" target="IZEF8j3LVq1unYXU-ZDd-27" edge="1">
          <mxGeometry relative="1" as="geometry">
            <mxPoint x="1030" y="2581.0699999999997" as="sourcePoint" />
            <mxPoint x="1150" y="2571.64" as="targetPoint" />
          </mxGeometry>
        </mxCell>
        <mxCell id="IZEF8j3LVq1unYXU-ZDd-51" value="&lt;font style=&quot;font-size: 14px;&quot;&gt;(1, 1)&lt;/font&gt;" style="edgeLabel;html=1;align=center;verticalAlign=middle;resizable=0;points=[];" parent="IZEF8j3LVq1unYXU-ZDd-50" connectable="0" vertex="1">
          <mxGeometry x="-0.0349" y="3" relative="1" as="geometry">
            <mxPoint x="218" y="-172" as="offset" />
          </mxGeometry>
        </mxCell>
        <mxCell id="IZEF8j3LVq1unYXU-ZDd-52" value="" style="endArrow=none;html=1;rounded=0;" parent="1" source="IZEF8j3LVq1unYXU-ZDd-5" target="IZEF8j3LVq1unYXU-ZDd-140" edge="1">
          <mxGeometry relative="1" as="geometry">
            <mxPoint x="1775" y="1691.6399999999999" as="sourcePoint" />
            <mxPoint x="1296.9985247440654" y="1813.1407376279667" as="targetPoint" />
          </mxGeometry>
        </mxCell>
        <mxCell id="IZEF8j3LVq1unYXU-ZDd-53" value="(1, 1)" style="edgeLabel;html=1;align=center;verticalAlign=middle;resizable=0;points=[];" parent="IZEF8j3LVq1unYXU-ZDd-52" vertex="1" connectable="0">
          <mxGeometry x="0.7009" y="-3" relative="1" as="geometry">
            <mxPoint x="-28" y="-11" as="offset" />
          </mxGeometry>
        </mxCell>
        <mxCell id="IZEF8j3LVq1unYXU-ZDd-54" value="" style="endArrow=none;html=1;rounded=0;shape=link;" parent="1" source="IZEF8j3LVq1unYXU-ZDd-140" target="IZEF8j3LVq1unYXU-ZDd-137" edge="1">
          <mxGeometry relative="1" as="geometry">
            <mxPoint x="1180.0000000000005" y="1811.6399999999994" as="sourcePoint" />
            <mxPoint x="1010" y="1828.1342857142854" as="targetPoint" />
          </mxGeometry>
        </mxCell>
        <mxCell id="IZEF8j3LVq1unYXU-ZDd-55" value="(1, N)" style="edgeLabel;html=1;align=center;verticalAlign=middle;resizable=0;points=[];" parent="IZEF8j3LVq1unYXU-ZDd-54" vertex="1" connectable="0">
          <mxGeometry x="-0.0022" y="-1" relative="1" as="geometry">
            <mxPoint x="71" y="-11" as="offset" />
          </mxGeometry>
        </mxCell>
        <mxCell id="IZEF8j3LVq1unYXU-ZDd-56" value="" style="endArrow=none;html=1;rounded=0;" parent="1" source="IZEF8j3LVq1unYXU-ZDd-1" target="IZEF8j3LVq1unYXU-ZDd-70" edge="1">
          <mxGeometry relative="1" as="geometry">
            <mxPoint x="1550" y="1128.3600000000001" as="sourcePoint" />
            <mxPoint x="2089.455769930834" y="1120.8354277393523" as="targetPoint" />
          </mxGeometry>
        </mxCell>
        <mxCell id="IZEF8j3LVq1unYXU-ZDd-57" value="(0,N)" style="edgeLabel;html=1;align=center;verticalAlign=middle;resizable=0;points=[];" parent="IZEF8j3LVq1unYXU-ZDd-56" vertex="1" connectable="0">
          <mxGeometry x="0.2038" y="-1" relative="1" as="geometry">
            <mxPoint x="86" y="149" as="offset" />
          </mxGeometry>
        </mxCell>
        <mxCell id="IZEF8j3LVq1unYXU-ZDd-58" value="(0,N)" style="endArrow=none;html=1;rounded=0;shape=link;exitX=0.75;exitY=0;exitDx=0;exitDy=0;" parent="1" source="IZEF8j3LVq1unYXU-ZDd-137" target="IZEF8j3LVq1unYXU-ZDd-136" edge="1">
          <mxGeometry x="0.9357" y="-33" relative="1" as="geometry">
            <mxPoint x="968.728408673282" y="1811.7200000000003" as="sourcePoint" />
            <mxPoint x="1140.8852500959447" y="1417.2452500959453" as="targetPoint" />
            <mxPoint as="offset" />
          </mxGeometry>
        </mxCell>
        <mxCell id="IZEF8j3LVq1unYXU-ZDd-59" value="" style="endArrow=none;html=1;rounded=0;" parent="1" source="IZEF8j3LVq1unYXU-ZDd-136" target="IZEF8j3LVq1unYXU-ZDd-3" edge="1">
          <mxGeometry relative="1" as="geometry">
            <mxPoint x="1160.939922991719" y="1377.2999229917195" as="sourcePoint" />
            <mxPoint x="1872" y="1874.5" as="targetPoint" />
          </mxGeometry>
        </mxCell>
        <mxCell id="IZEF8j3LVq1unYXU-ZDd-60" value="(1, 1)" style="edgeLabel;html=1;align=center;verticalAlign=middle;resizable=0;points=[];" parent="IZEF8j3LVq1unYXU-ZDd-59" vertex="1" connectable="0">
          <mxGeometry x="-0.8649" y="3" relative="1" as="geometry">
            <mxPoint x="-26" y="2" as="offset" />
          </mxGeometry>
        </mxCell>
        <mxCell id="IZEF8j3LVq1unYXU-ZDd-61" value="Tarih" style="ellipse;whiteSpace=wrap;html=1;align=center;" parent="1" vertex="1">
          <mxGeometry x="690" y="1783.7200000000003" width="100" height="40" as="geometry" />
        </mxCell>
        <mxCell id="IZEF8j3LVq1unYXU-ZDd-62" value="" style="endArrow=none;html=1;rounded=0;exitX=0;exitY=0.75;exitDx=0;exitDy=0;" parent="1" source="IZEF8j3LVq1unYXU-ZDd-137" target="IZEF8j3LVq1unYXU-ZDd-61" edge="1">
          <mxGeometry relative="1" as="geometry">
            <mxPoint x="910" y="1825.3248840242368" as="sourcePoint" />
            <mxPoint x="762" y="1734.7200000000003" as="targetPoint" />
          </mxGeometry>
        </mxCell>
        <mxCell id="IZEF8j3LVq1unYXU-ZDd-64" value="(0,N)" style="endArrow=none;html=1;rounded=0;exitX=0;exitY=0.5;exitDx=0;exitDy=0;" parent="1" source="IZEF8j3LVq1unYXU-ZDd-164" target="IZEF8j3LVq1unYXU-ZDd-3" edge="1">
          <mxGeometry x="-0.8651" y="-24" relative="1" as="geometry">
            <mxPoint x="1341.0371189155558" y="1420.5761771753087" as="sourcePoint" />
            <mxPoint x="1847" y="2240" as="targetPoint" />
            <mxPoint as="offset" />
          </mxGeometry>
        </mxCell>
        <mxCell id="IZEF8j3LVq1unYXU-ZDd-66" value="" style="endArrow=none;html=1;rounded=0;" parent="1" source="IZEF8j3LVq1unYXU-ZDd-143" target="IZEF8j3LVq1unYXU-ZDd-2" edge="1">
          <mxGeometry relative="1" as="geometry">
            <mxPoint x="865.2192105263157" y="1637.140789473684" as="sourcePoint" />
            <mxPoint x="1304" y="1776.3600000000001" as="targetPoint" />
          </mxGeometry>
        </mxCell>
        <mxCell id="IZEF8j3LVq1unYXU-ZDd-67" value="(0,M)" style="edgeLabel;html=1;align=center;verticalAlign=middle;resizable=0;points=[];" parent="IZEF8j3LVq1unYXU-ZDd-66" vertex="1" connectable="0">
          <mxGeometry x="-0.1072" y="-3" relative="1" as="geometry">
            <mxPoint x="15" y="45" as="offset" />
          </mxGeometry>
        </mxCell>
        <mxCell id="IZEF8j3LVq1unYXU-ZDd-68" value="Muayene Faturası" style="shape=ext;margin=3;double=1;whiteSpace=wrap;html=1;align=center;" parent="1" vertex="1">
          <mxGeometry x="2270" y="1323.3599999999997" width="120" height="50" as="geometry" />
        </mxCell>
        <mxCell id="IZEF8j3LVq1unYXU-ZDd-69" value="Renk" style="ellipse;shape=doubleEllipse;margin=3;whiteSpace=wrap;html=1;align=center;" parent="1" vertex="1">
          <mxGeometry x="1505" y="1899.9999999999995" width="100" height="40" as="geometry" />
        </mxCell>
        <mxCell id="IZEF8j3LVq1unYXU-ZDd-70" value="Öder" style="shape=rhombus;double=1;perimeter=rhombusPerimeter;whiteSpace=wrap;html=1;align=center;" parent="1" vertex="1">
          <mxGeometry x="2270" y="1200" width="85" height="60" as="geometry" />
        </mxCell>
        <mxCell id="IZEF8j3LVq1unYXU-ZDd-71" value="" style="endArrow=none;html=1;rounded=0;exitX=0.183;exitY=0.986;exitDx=0;exitDy=0;exitPerimeter=0;" parent="1" source="IZEF8j3LVq1unYXU-ZDd-5" target="IZEF8j3LVq1unYXU-ZDd-69" edge="1">
          <mxGeometry relative="1" as="geometry">
            <mxPoint x="1613" y="1842.83" as="sourcePoint" />
            <mxPoint x="1535" y="1914.83" as="targetPoint" />
          </mxGeometry>
        </mxCell>
        <mxCell id="IZEF8j3LVq1unYXU-ZDd-72" value="" style="endArrow=none;html=1;rounded=0;" parent="1" source="IZEF8j3LVq1unYXU-ZDd-3" target="IZEF8j3LVq1unYXU-ZDd-73" edge="1">
          <mxGeometry relative="1" as="geometry">
            <mxPoint x="1265.91" y="930" as="sourcePoint" />
            <mxPoint x="1380" y="950" as="targetPoint" />
          </mxGeometry>
        </mxCell>
        <mxCell id="IZEF8j3LVq1unYXU-ZDd-73" value="OdaNo" style="ellipse;whiteSpace=wrap;html=1;align=center;" parent="1" vertex="1">
          <mxGeometry x="1180.0000000000005" y="960" width="100" height="40" as="geometry" />
        </mxCell>
        <mxCell id="IZEF8j3LVq1unYXU-ZDd-74" style="edgeStyle=none;rounded=0;orthogonalLoop=1;jettySize=auto;html=1;exitX=0.5;exitY=0;exitDx=0;exitDy=0;" parent="1" source="IZEF8j3LVq1unYXU-ZDd-61" target="IZEF8j3LVq1unYXU-ZDd-61" edge="1">
          <mxGeometry relative="1" as="geometry" />
        </mxCell>
        <mxCell id="IZEF8j3LVq1unYXU-ZDd-75" value="Review Verir" style="shape=rhombus;perimeter=rhombusPerimeter;whiteSpace=wrap;html=1;align=center;" parent="1" vertex="1">
          <mxGeometry x="1560" y="1306.3600000000001" width="120" height="60" as="geometry" />
        </mxCell>
        <mxCell id="IZEF8j3LVq1unYXU-ZDd-76" value="(0,M)" style="endArrow=none;html=1;rounded=0;" parent="1" source="IZEF8j3LVq1unYXU-ZDd-75" target="IZEF8j3LVq1unYXU-ZDd-3" edge="1">
          <mxGeometry x="-0.882" y="-15" relative="1" as="geometry">
            <mxPoint x="1448" y="2200" as="sourcePoint" />
            <mxPoint x="1548" y="2160" as="targetPoint" />
            <Array as="points" />
            <mxPoint y="-1" as="offset" />
          </mxGeometry>
        </mxCell>
        <mxCell id="IZEF8j3LVq1unYXU-ZDd-77" value="TelefonNo" style="ellipse;whiteSpace=wrap;html=1;align=center;" parent="1" vertex="1">
          <mxGeometry x="1425" y="1078.3600000000001" width="100" height="40" as="geometry" />
        </mxCell>
        <mxCell id="IZEF8j3LVq1unYXU-ZDd-78" value="Soyisim" style="ellipse;whiteSpace=wrap;html=1;align=center;" parent="1" vertex="1">
          <mxGeometry x="1435.0000000000005" y="930" width="100" height="40" as="geometry" />
        </mxCell>
        <mxCell id="IZEF8j3LVq1unYXU-ZDd-79" value="Adres" style="ellipse;whiteSpace=wrap;html=1;align=center;" parent="1" vertex="1">
          <mxGeometry x="1570" y="1080.5499999999997" width="100" height="40" as="geometry" />
        </mxCell>
        <mxCell id="IZEF8j3LVq1unYXU-ZDd-80" value="İlçe" style="ellipse;whiteSpace=wrap;html=1;align=center;" parent="1" vertex="1">
          <mxGeometry x="1630" y="1144.5499999999997" width="100" height="40" as="geometry" />
        </mxCell>
        <mxCell id="IZEF8j3LVq1unYXU-ZDd-81" style="edgeStyle=none;rounded=0;orthogonalLoop=1;jettySize=auto;html=1;exitX=0;exitY=0;exitDx=0;exitDy=0;" parent="1" source="IZEF8j3LVq1unYXU-ZDd-82" target="IZEF8j3LVq1unYXU-ZDd-82" edge="1">
          <mxGeometry relative="1" as="geometry" />
        </mxCell>
        <mxCell id="IZEF8j3LVq1unYXU-ZDd-82" value="Puan" style="ellipse;whiteSpace=wrap;html=1;align=center;" parent="1" vertex="1">
          <mxGeometry x="1432.5900000000001" y="1298.3600000000001" width="100" height="40" as="geometry" />
        </mxCell>
        <mxCell id="IZEF8j3LVq1unYXU-ZDd-83" value="" style="endArrow=none;html=1;rounded=0;" parent="1" source="IZEF8j3LVq1unYXU-ZDd-82" target="IZEF8j3LVq1unYXU-ZDd-75" edge="1">
          <mxGeometry relative="1" as="geometry">
            <mxPoint x="1530" y="1276.3600000000001" as="sourcePoint" />
            <mxPoint x="1700" y="1336.3600000000001" as="targetPoint" />
          </mxGeometry>
        </mxCell>
        <mxCell id="IZEF8j3LVq1unYXU-ZDd-84" value="" style="endArrow=none;html=1;rounded=0;" parent="1" source="IZEF8j3LVq1unYXU-ZDd-93" target="IZEF8j3LVq1unYXU-ZDd-75" edge="1">
          <mxGeometry relative="1" as="geometry">
            <mxPoint x="1555" y="1290.3600000000001" as="sourcePoint" />
            <mxPoint x="1600" y="1331.3600000000001" as="targetPoint" />
          </mxGeometry>
        </mxCell>
        <mxCell id="IZEF8j3LVq1unYXU-ZDd-85" value="Mahalle" style="ellipse;whiteSpace=wrap;html=1;align=center;" parent="1" vertex="1">
          <mxGeometry x="1525" y="1124.5499999999997" width="100" height="40" as="geometry" />
        </mxCell>
        <mxCell id="IZEF8j3LVq1unYXU-ZDd-86" value="" style="endArrow=none;html=1;rounded=0;" parent="1" source="IZEF8j3LVq1unYXU-ZDd-79" target="IZEF8j3LVq1unYXU-ZDd-80" edge="1">
          <mxGeometry relative="1" as="geometry">
            <mxPoint x="2180" y="1465.5500000000002" as="sourcePoint" />
            <mxPoint x="2340" y="1465.5500000000002" as="targetPoint" />
          </mxGeometry>
        </mxCell>
        <mxCell id="IZEF8j3LVq1unYXU-ZDd-87" value="" style="endArrow=none;html=1;rounded=0;" parent="1" source="IZEF8j3LVq1unYXU-ZDd-79" target="IZEF8j3LVq1unYXU-ZDd-85" edge="1">
          <mxGeometry relative="1" as="geometry">
            <mxPoint x="2076" y="1599.5500000000002" as="sourcePoint" />
            <mxPoint x="1672.430215321388" y="1114.0157218463414" as="targetPoint" />
          </mxGeometry>
        </mxCell>
        <mxCell id="IZEF8j3LVq1unYXU-ZDd-88" value="" style="endArrow=none;html=1;rounded=0;" parent="1" source="IZEF8j3LVq1unYXU-ZDd-3" target="IZEF8j3LVq1unYXU-ZDd-79" edge="1">
          <mxGeometry relative="1" as="geometry">
            <mxPoint x="1530" y="1350" as="sourcePoint" />
            <mxPoint x="1940" y="1276" as="targetPoint" />
          </mxGeometry>
        </mxCell>
        <mxCell id="IZEF8j3LVq1unYXU-ZDd-89" value="" style="endArrow=none;html=1;rounded=0;entryX=0.5;entryY=0;entryDx=0;entryDy=0;exitX=0.166;exitY=0.983;exitDx=0;exitDy=0;exitPerimeter=0;" parent="1" source="IZEF8j3LVq1unYXU-ZDd-3" target="IZEF8j3LVq1unYXU-ZDd-139" edge="1">
          <mxGeometry relative="1" as="geometry">
            <mxPoint x="1381" y="1065" as="sourcePoint" />
            <mxPoint x="1495.4386049658683" y="1042.3567255981793" as="targetPoint" />
          </mxGeometry>
        </mxCell>
        <mxCell id="IZEF8j3LVq1unYXU-ZDd-90" value="" style="endArrow=none;html=1;rounded=0;" parent="1" source="IZEF8j3LVq1unYXU-ZDd-3" target="IZEF8j3LVq1unYXU-ZDd-77" edge="1">
          <mxGeometry relative="1" as="geometry">
            <mxPoint x="1417" y="1050" as="sourcePoint" />
            <mxPoint x="1581" y="1065" as="targetPoint" />
          </mxGeometry>
        </mxCell>
        <mxCell id="IZEF8j3LVq1unYXU-ZDd-91" value="(0,N)" style="endArrow=none;html=1;rounded=0;" parent="1" source="IZEF8j3LVq1unYXU-ZDd-75" target="IZEF8j3LVq1unYXU-ZDd-1" edge="1">
          <mxGeometry x="-0.7963" y="-17" relative="1" as="geometry">
            <mxPoint x="1487" y="1953" as="sourcePoint" />
            <mxPoint x="1955" y="1665" as="targetPoint" />
            <Array as="points" />
            <mxPoint as="offset" />
          </mxGeometry>
        </mxCell>
        <mxCell id="IZEF8j3LVq1unYXU-ZDd-92" value="" style="endArrow=none;html=1;rounded=0;exitX=0.75;exitY=0;exitDx=0;exitDy=0;" parent="1" source="IZEF8j3LVq1unYXU-ZDd-3" target="IZEF8j3LVq1unYXU-ZDd-78" edge="1">
          <mxGeometry relative="1" as="geometry">
            <mxPoint x="1417" y="1045" as="sourcePoint" />
            <mxPoint x="1490" y="1045" as="targetPoint" />
          </mxGeometry>
        </mxCell>
        <mxCell id="IZEF8j3LVq1unYXU-ZDd-93" value="Açıklama" style="ellipse;whiteSpace=wrap;html=1;align=center;" parent="1" vertex="1">
          <mxGeometry x="1460" y="1370" width="75" height="40" as="geometry" />
        </mxCell>
        <mxCell id="IZEF8j3LVq1unYXU-ZDd-94" value="" style="endArrow=none;html=1;rounded=0;exitX=0.25;exitY=1;exitDx=0;exitDy=0;entryX=0.5;entryY=0;entryDx=0;entryDy=0;" parent="1" source="IZEF8j3LVq1unYXU-ZDd-68" target="IZEF8j3LVq1unYXU-ZDd-128" edge="1">
          <mxGeometry relative="1" as="geometry">
            <mxPoint x="2130.2" y="1039.5499999999997" as="sourcePoint" />
            <mxPoint x="2032.2" y="1466.19" as="targetPoint" />
            <Array as="points" />
          </mxGeometry>
        </mxCell>
        <mxCell id="IZEF8j3LVq1unYXU-ZDd-95" value="" style="shape=link;html=1;rounded=0;" parent="1" source="IZEF8j3LVq1unYXU-ZDd-68" target="IZEF8j3LVq1unYXU-ZDd-70" edge="1">
          <mxGeometry relative="1" as="geometry">
            <mxPoint x="2142.2" y="1064.5499999999997" as="sourcePoint" />
            <mxPoint x="2302.2" y="1064.5499999999997" as="targetPoint" />
          </mxGeometry>
        </mxCell>
        <mxCell id="IZEF8j3LVq1unYXU-ZDd-96" value="(1,1)" style="edgeLabel;html=1;align=center;verticalAlign=middle;resizable=0;points=[];" parent="IZEF8j3LVq1unYXU-ZDd-95" vertex="1" connectable="0">
          <mxGeometry x="0.0255" y="-2" relative="1" as="geometry">
            <mxPoint x="-43" y="-120" as="offset" />
          </mxGeometry>
        </mxCell>
        <mxCell id="IZEF8j3LVq1unYXU-ZDd-97" value="Soyisim" style="ellipse;whiteSpace=wrap;html=1;align=center;" parent="1" vertex="1">
          <mxGeometry x="2240" y="1040.5499999999997" width="100" height="40" as="geometry" />
        </mxCell>
        <mxCell id="IZEF8j3LVq1unYXU-ZDd-98" value="" style="endArrow=none;html=1;rounded=0;exitX=1;exitY=1;exitDx=0;exitDy=0;" parent="1" source="IZEF8j3LVq1unYXU-ZDd-1" target="IZEF8j3LVq1unYXU-ZDd-97" edge="1">
          <mxGeometry relative="1" as="geometry">
            <mxPoint x="2139" y="1008.3600000000001" as="sourcePoint" />
            <mxPoint x="2207" y="1128.3600000000001" as="targetPoint" />
          </mxGeometry>
        </mxCell>
        <mxCell id="IZEF8j3LVq1unYXU-ZDd-99" value="Admin" style="whiteSpace=wrap;html=1;align=center;" parent="1" vertex="1">
          <mxGeometry x="836.5" y="1040.5499999999997" width="100" height="40" as="geometry" />
        </mxCell>
        <mxCell id="IZEF8j3LVq1unYXU-ZDd-100" value="İlaç Alır" style="shape=rhombus;perimeter=rhombusPerimeter;whiteSpace=wrap;html=1;align=center;" parent="1" vertex="1">
          <mxGeometry x="810" y="1190.5500000000002" width="65" height="60" as="geometry" />
        </mxCell>
        <mxCell id="IZEF8j3LVq1unYXU-ZDd-101" value="&lt;div&gt;Ekler&lt;/div&gt;" style="shape=rhombus;perimeter=rhombusPerimeter;whiteSpace=wrap;html=1;align=center;" parent="1" vertex="1">
          <mxGeometry x="990.0000000000001" y="1096" width="120" height="60" as="geometry" />
        </mxCell>
        <mxCell id="IZEF8j3LVq1unYXU-ZDd-102" value="" style="endArrow=none;html=1;rounded=0;" parent="1" source="IZEF8j3LVq1unYXU-ZDd-2" target="IZEF8j3LVq1unYXU-ZDd-100" edge="1">
          <mxGeometry relative="1" as="geometry">
            <mxPoint x="1515" y="1500" as="sourcePoint" />
            <mxPoint x="880" y="1280" as="targetPoint" />
          </mxGeometry>
        </mxCell>
        <mxCell id="IZEF8j3LVq1unYXU-ZDd-103" value="(0, N)" style="edgeLabel;html=1;align=center;verticalAlign=middle;resizable=0;points=[];" parent="IZEF8j3LVq1unYXU-ZDd-102" vertex="1" connectable="0">
          <mxGeometry x="0.2668" y="-3" relative="1" as="geometry">
            <mxPoint y="7" as="offset" />
          </mxGeometry>
        </mxCell>
        <mxCell id="IZEF8j3LVq1unYXU-ZDd-104" value="" style="endArrow=none;html=1;rounded=0;" parent="1" source="IZEF8j3LVq1unYXU-ZDd-100" target="IZEF8j3LVq1unYXU-ZDd-99" edge="1">
          <mxGeometry relative="1" as="geometry">
            <mxPoint x="760" y="1070.5499999999997" as="sourcePoint" />
            <mxPoint x="1340" y="1175.5500000000002" as="targetPoint" />
            <Array as="points" />
          </mxGeometry>
        </mxCell>
        <mxCell id="IZEF8j3LVq1unYXU-ZDd-105" value="(1,1)" style="edgeLabel;html=1;align=center;verticalAlign=middle;resizable=0;points=[];" parent="IZEF8j3LVq1unYXU-ZDd-104" vertex="1" connectable="0">
          <mxGeometry x="-0.0146" y="3" relative="1" as="geometry">
            <mxPoint x="-18" y="10" as="offset" />
          </mxGeometry>
        </mxCell>
        <mxCell id="IZEF8j3LVq1unYXU-ZDd-106" value="(1, 1)" style="endArrow=none;html=1;rounded=0;" parent="1" source="IZEF8j3LVq1unYXU-ZDd-101" target="IZEF8j3LVq1unYXU-ZDd-99" edge="1">
          <mxGeometry x="-0.1899" y="11" relative="1" as="geometry">
            <mxPoint x="1515" y="1295.5500000000002" as="sourcePoint" />
            <mxPoint x="1609" y="1220.5500000000002" as="targetPoint" />
            <mxPoint as="offset" />
          </mxGeometry>
        </mxCell>
        <mxCell id="IZEF8j3LVq1unYXU-ZDd-107" value="(0, N)" style="endArrow=none;html=1;rounded=0;" parent="1" source="IZEF8j3LVq1unYXU-ZDd-101" target="IZEF8j3LVq1unYXU-ZDd-3" edge="1">
          <mxGeometry x="-0.7423" y="-14" relative="1" as="geometry">
            <mxPoint x="2115" y="1557" as="sourcePoint" />
            <mxPoint x="2016" y="1625" as="targetPoint" />
            <mxPoint as="offset" />
          </mxGeometry>
        </mxCell>
        <mxCell id="IZEF8j3LVq1unYXU-ZDd-108" value="İl" style="ellipse;whiteSpace=wrap;html=1;align=center;" parent="1" vertex="1">
          <mxGeometry x="2300" y="758" width="100" height="40" as="geometry" />
        </mxCell>
        <mxCell id="IZEF8j3LVq1unYXU-ZDd-109" value="" style="endArrow=none;html=1;rounded=0;entryX=0.5;entryY=1;entryDx=0;entryDy=0;exitX=0.5;exitY=0;exitDx=0;exitDy=0;" parent="1" source="IZEF8j3LVq1unYXU-ZDd-8" target="IZEF8j3LVq1unYXU-ZDd-108" edge="1">
          <mxGeometry relative="1" as="geometry">
            <mxPoint x="1891" y="1007.3600000000001" as="sourcePoint" />
            <mxPoint x="1854" y="1009.3600000000001" as="targetPoint" />
          </mxGeometry>
        </mxCell>
        <mxCell id="IZEF8j3LVq1unYXU-ZDd-110" value="İl" style="ellipse;whiteSpace=wrap;html=1;align=center;" parent="1" vertex="1">
          <mxGeometry x="1710" y="1094.5499999999997" width="100" height="40" as="geometry" />
        </mxCell>
        <mxCell id="IZEF8j3LVq1unYXU-ZDd-111" value="" style="endArrow=none;html=1;rounded=0;" parent="1" source="IZEF8j3LVq1unYXU-ZDd-110" target="IZEF8j3LVq1unYXU-ZDd-79" edge="1">
          <mxGeometry relative="1" as="geometry">
            <mxPoint x="1613" y="1129.5499999999997" as="sourcePoint" />
            <mxPoint x="1588" y="1155.5499999999997" as="targetPoint" />
          </mxGeometry>
        </mxCell>
        <mxCell id="IZEF8j3LVq1unYXU-ZDd-112" value="&lt;div&gt;Ücret&lt;/div&gt;" style="ellipse;whiteSpace=wrap;html=1;align=center;" parent="1" vertex="1">
          <mxGeometry x="2355" y="1440" width="100" height="40" as="geometry" />
        </mxCell>
        <mxCell id="IZEF8j3LVq1unYXU-ZDd-113" value="" style="endArrow=none;html=1;rounded=0;exitX=0.75;exitY=1;exitDx=0;exitDy=0;entryX=0.5;entryY=0;entryDx=0;entryDy=0;" parent="1" source="IZEF8j3LVq1unYXU-ZDd-68" target="IZEF8j3LVq1unYXU-ZDd-112" edge="1">
          <mxGeometry relative="1" as="geometry">
            <mxPoint x="2112.2" y="1064.5499999999997" as="sourcePoint" />
            <mxPoint x="2272.2" y="1064.5499999999997" as="targetPoint" />
          </mxGeometry>
        </mxCell>
        <mxCell id="IZEF8j3LVq1unYXU-ZDd-114" value="Kullanıcı" style="whiteSpace=wrap;html=1;align=center;" parent="1" vertex="1">
          <mxGeometry x="1460" y="680" width="100" height="40" as="geometry" />
        </mxCell>
        <mxCell id="IZEF8j3LVq1unYXU-ZDd-115" value="d" style="ellipse;whiteSpace=wrap;html=1;aspect=fixed;" parent="1" vertex="1">
          <mxGeometry x="1490.01" y="758" width="40" height="40" as="geometry" />
        </mxCell>
        <mxCell id="IZEF8j3LVq1unYXU-ZDd-116" value="" style="endArrow=none;html=1;rounded=0;exitX=0;exitY=1;exitDx=0;exitDy=0;entryX=1;entryY=0;entryDx=0;entryDy=0;" parent="1" source="IZEF8j3LVq1unYXU-ZDd-115" target="IZEF8j3LVq1unYXU-ZDd-99" edge="1">
          <mxGeometry relative="1" as="geometry">
            <mxPoint x="1518.34" y="718" as="sourcePoint" />
            <mxPoint x="1450" y="828" as="targetPoint" />
          </mxGeometry>
        </mxCell>
        <mxCell id="IZEF8j3LVq1unYXU-ZDd-117" value="U" style="edgeLabel;html=1;align=center;verticalAlign=middle;resizable=0;points=[];rotation=65;labelBackgroundColor=none;fontSize=30;" parent="IZEF8j3LVq1unYXU-ZDd-116" vertex="1" connectable="0">
          <mxGeometry relative="1" as="geometry">
            <mxPoint as="offset" />
          </mxGeometry>
        </mxCell>
        <mxCell id="IZEF8j3LVq1unYXU-ZDd-118" value="" style="endArrow=none;html=1;rounded=0;exitX=1;exitY=1;exitDx=0;exitDy=0;entryX=0;entryY=0;entryDx=0;entryDy=0;" parent="1" source="IZEF8j3LVq1unYXU-ZDd-115" target="IZEF8j3LVq1unYXU-ZDd-1" edge="1">
          <mxGeometry relative="1" as="geometry">
            <mxPoint x="1528.34" y="728" as="sourcePoint" />
            <mxPoint x="1570" y="828" as="targetPoint" />
          </mxGeometry>
        </mxCell>
        <mxCell id="IZEF8j3LVq1unYXU-ZDd-119" value="U" style="edgeLabel;html=1;align=center;verticalAlign=middle;resizable=0;points=[];rotation=-65;labelBackgroundColor=none;fontSize=30;" parent="IZEF8j3LVq1unYXU-ZDd-118" vertex="1" connectable="0">
          <mxGeometry relative="1" as="geometry">
            <mxPoint x="10" y="5" as="offset" />
          </mxGeometry>
        </mxCell>
        <mxCell id="IZEF8j3LVq1unYXU-ZDd-120" value="" style="endArrow=none;html=1;rounded=0;entryX=1;entryY=0;entryDx=0;entryDy=0;" parent="1" source="IZEF8j3LVq1unYXU-ZDd-121" target="IZEF8j3LVq1unYXU-ZDd-114" edge="1">
          <mxGeometry relative="1" as="geometry">
            <mxPoint x="1651" y="780" as="sourcePoint" />
            <mxPoint x="1570" y="675" as="targetPoint" />
          </mxGeometry>
        </mxCell>
        <mxCell id="IZEF8j3LVq1unYXU-ZDd-121" value="Email" style="ellipse;whiteSpace=wrap;html=1;align=center;" parent="1" vertex="1">
          <mxGeometry x="1595" y="590" width="100" height="40" as="geometry" />
        </mxCell>
        <mxCell id="IZEF8j3LVq1unYXU-ZDd-122" value="Şifre" style="ellipse;whiteSpace=wrap;html=1;align=center;" parent="1" vertex="1">
          <mxGeometry x="1617" y="650" width="100" height="40" as="geometry" />
        </mxCell>
        <mxCell id="IZEF8j3LVq1unYXU-ZDd-123" value="" style="endArrow=none;html=1;rounded=0;exitX=1;exitY=0.5;exitDx=0;exitDy=0;" parent="1" source="IZEF8j3LVq1unYXU-ZDd-114" target="IZEF8j3LVq1unYXU-ZDd-122" edge="1">
          <mxGeometry relative="1" as="geometry">
            <mxPoint x="1570.0000000000005" y="642" as="sourcePoint" />
            <mxPoint x="1867" y="681" as="targetPoint" />
          </mxGeometry>
        </mxCell>
        <mxCell id="IZEF8j3LVq1unYXU-ZDd-124" value="" style="endArrow=none;html=1;rounded=0;exitX=0.5;exitY=1;exitDx=0;exitDy=0;entryX=0.5;entryY=0;entryDx=0;entryDy=0;" parent="1" source="IZEF8j3LVq1unYXU-ZDd-115" target="IZEF8j3LVq1unYXU-ZDd-3" edge="1">
          <mxGeometry relative="1" as="geometry">
            <mxPoint x="1510" y="840" as="sourcePoint" />
            <mxPoint x="1510" y="860" as="targetPoint" />
          </mxGeometry>
        </mxCell>
        <mxCell id="IZEF8j3LVq1unYXU-ZDd-125" value="U" style="edgeLabel;html=1;align=center;verticalAlign=middle;resizable=0;points=[];rotation=30;labelBackgroundColor=none;fontSize=30;" parent="IZEF8j3LVq1unYXU-ZDd-124" vertex="1" connectable="0">
          <mxGeometry relative="1" as="geometry">
            <mxPoint as="offset" />
          </mxGeometry>
        </mxCell>
        <mxCell id="IZEF8j3LVq1unYXU-ZDd-126" value="" style="endArrow=none;html=1;rounded=0;shape=link;entryX=0.5;entryY=1;entryDx=0;entryDy=0;exitX=0.5;exitY=0;exitDx=0;exitDy=0;" parent="1" source="IZEF8j3LVq1unYXU-ZDd-115" edge="1">
          <mxGeometry x="0.939" y="-14" relative="1" as="geometry">
            <mxPoint x="1600" y="760" as="sourcePoint" />
            <mxPoint x="1510" y="720" as="targetPoint" />
            <mxPoint as="offset" />
          </mxGeometry>
        </mxCell>
        <mxCell id="IZEF8j3LVq1unYXU-ZDd-127" value="" style="group" parent="1" vertex="1" connectable="0">
          <mxGeometry x="2240" y="1433.81" width="100" height="46.19" as="geometry" />
        </mxCell>
        <mxCell id="IZEF8j3LVq1unYXU-ZDd-128" value="" style="ellipse;whiteSpace=wrap;html=1;align=center;" parent="IZEF8j3LVq1unYXU-ZDd-127" vertex="1">
          <mxGeometry width="100" height="40" as="geometry" />
        </mxCell>
        <mxCell id="IZEF8j3LVq1unYXU-ZDd-129" value="FaturaID" style="group" parent="IZEF8j3LVq1unYXU-ZDd-127" vertex="1" connectable="0">
          <mxGeometry y="6.189999999999998" width="100" height="40" as="geometry" />
        </mxCell>
        <mxCell id="IZEF8j3LVq1unYXU-ZDd-130" value="" style="endArrow=none;html=1;rounded=0;dashed=1;dashPattern=1 2;" parent="IZEF8j3LVq1unYXU-ZDd-129" edge="1">
          <mxGeometry relative="1" as="geometry">
            <mxPoint x="30.000000000000004" y="25.28" as="sourcePoint" />
            <mxPoint x="70" y="25.28" as="targetPoint" />
          </mxGeometry>
        </mxCell>
        <mxCell id="IZEF8j3LVq1unYXU-ZDd-131" value="" style="resizable=0;html=1;whiteSpace=wrap;align=right;verticalAlign=bottom;" parent="IZEF8j3LVq1unYXU-ZDd-130" connectable="0" vertex="1">
          <mxGeometry x="1" relative="1" as="geometry" />
        </mxCell>
        <mxCell id="IZEF8j3LVq1unYXU-ZDd-132" value="Rol" style="ellipse;whiteSpace=wrap;html=1;align=center;" parent="1" vertex="1">
          <mxGeometry x="1635" y="718" width="100" height="40" as="geometry" />
        </mxCell>
        <mxCell id="IZEF8j3LVq1unYXU-ZDd-133" value="" style="endArrow=none;html=1;rounded=0;exitX=1;exitY=1;exitDx=0;exitDy=0;" parent="1" source="IZEF8j3LVq1unYXU-ZDd-114" target="IZEF8j3LVq1unYXU-ZDd-132" edge="1">
          <mxGeometry relative="1" as="geometry">
            <mxPoint x="1580" y="758" as="sourcePoint" />
            <mxPoint x="1887" y="739" as="targetPoint" />
          </mxGeometry>
        </mxCell>
        <mxCell id="IZEF8j3LVq1unYXU-ZDd-134" value="" style="endArrow=none;html=1;rounded=0;entryX=0.75;entryY=0;entryDx=0;entryDy=0;exitX=0.5;exitY=1;exitDx=0;exitDy=0;" parent="1" source="IZEF8j3LVq1unYXU-ZDd-135" target="IZEF8j3LVq1unYXU-ZDd-114" edge="1">
          <mxGeometry relative="1" as="geometry">
            <mxPoint x="1530" y="599.9999999999995" as="sourcePoint" />
            <mxPoint x="1490" y="860" as="targetPoint" />
          </mxGeometry>
        </mxCell>
        <mxCell id="IZEF8j3LVq1unYXU-ZDd-135" value="KullanıcıID" style="ellipse;whiteSpace=wrap;html=1;align=center;fontStyle=4;" parent="1" vertex="1">
          <mxGeometry x="1460" y="598" width="100" height="40" as="geometry" />
        </mxCell>
        <mxCell id="IZEF8j3LVq1unYXU-ZDd-136" value="Yazar" style="shape=rhombus;perimeter=rhombusPerimeter;whiteSpace=wrap;html=1;align=center;" parent="1" vertex="1">
          <mxGeometry x="1110" y="1353.3600000000001" width="65" height="60" as="geometry" />
        </mxCell>
        <mxCell id="IZEF8j3LVq1unYXU-ZDd-137" value="Reçete" style="whiteSpace=wrap;html=1;align=center;" parent="1" vertex="1">
          <mxGeometry x="907" y="1791.6400000000003" width="100" height="40" as="geometry" />
        </mxCell>
        <mxCell id="IZEF8j3LVq1unYXU-ZDd-138" value="ReçeteID" style="ellipse;whiteSpace=wrap;html=1;align=center;fontStyle=4;" parent="1" vertex="1">
          <mxGeometry x="700" y="1706.7199999999998" width="100" height="40" as="geometry" />
        </mxCell>
        <mxCell id="IZEF8j3LVq1unYXU-ZDd-139" value="TCNO" style="ellipse;whiteSpace=wrap;html=1;align=center;" parent="1" vertex="1">
          <mxGeometry x="1195" y="1084.5500000000004" width="100" height="40" as="geometry" />
        </mxCell>
        <mxCell id="IZEF8j3LVq1unYXU-ZDd-140" value="&lt;div&gt;Var&lt;/div&gt;" style="shape=rhombus;perimeter=rhombusPerimeter;whiteSpace=wrap;html=1;align=center;rotation=0;" parent="1" vertex="1">
          <mxGeometry x="1190" y="1786.6399999999999" width="90" height="50" as="geometry" />
        </mxCell>
        <mxCell id="IZEF8j3LVq1unYXU-ZDd-143" value="İçerir" style="shape=rhombus;perimeter=rhombusPerimeter;whiteSpace=wrap;html=1;align=center;" parent="1" vertex="1">
          <mxGeometry x="790" y="1590" width="120" height="60" as="geometry" />
        </mxCell>
        <mxCell id="IZEF8j3LVq1unYXU-ZDd-144" value="Miktar" style="ellipse;whiteSpace=wrap;html=1;align=center;" parent="1" vertex="1">
          <mxGeometry x="930" y="1425" width="100" height="40" as="geometry" />
        </mxCell>
        <mxCell id="IZEF8j3LVq1unYXU-ZDd-145" value="" style="endArrow=none;html=1;rounded=0;entryX=0;entryY=0.5;entryDx=0;entryDy=0;exitX=1;exitY=0.5;exitDx=0;exitDy=0;" parent="1" source="IZEF8j3LVq1unYXU-ZDd-2" target="IZEF8j3LVq1unYXU-ZDd-144" edge="1">
          <mxGeometry relative="1" as="geometry">
            <mxPoint x="708" y="1426" as="sourcePoint" />
            <mxPoint x="760" y="1432" as="targetPoint" />
          </mxGeometry>
        </mxCell>
        <mxCell id="IZEF8j3LVq1unYXU-ZDd-146" value="Tür" style="ellipse;whiteSpace=wrap;html=1;align=center;" parent="1" vertex="1">
          <mxGeometry x="1830" y="1869.9999999999995" width="100" height="40" as="geometry" />
        </mxCell>
        <mxCell id="IZEF8j3LVq1unYXU-ZDd-147" value="" style="endArrow=none;html=1;rounded=0;entryX=1;entryY=1;entryDx=0;entryDy=0;" parent="1" source="IZEF8j3LVq1unYXU-ZDd-146" target="IZEF8j3LVq1unYXU-ZDd-5" edge="1">
          <mxGeometry relative="1" as="geometry">
            <mxPoint x="1915" y="1402.83" as="sourcePoint" />
            <mxPoint x="1725" y="1853" as="targetPoint" />
          </mxGeometry>
        </mxCell>
        <mxCell id="IZEF8j3LVq1unYXU-ZDd-148" value="Uygundur" style="shape=rhombus;perimeter=rhombusPerimeter;whiteSpace=wrap;html=1;align=center;" parent="1" vertex="1">
          <mxGeometry x="1500" y="970" width="80" height="60" as="geometry" />
        </mxCell>
        <mxCell id="IZEF8j3LVq1unYXU-ZDd-149" value="Saatler" style="whiteSpace=wrap;html=1;align=center;" parent="1" vertex="1">
          <mxGeometry x="1610" y="980" width="100" height="40" as="geometry" />
        </mxCell>
        <mxCell id="IZEF8j3LVq1unYXU-ZDd-150" value="&lt;u&gt;SaatID&lt;/u&gt;" style="ellipse;whiteSpace=wrap;html=1;align=center;" parent="1" vertex="1">
          <mxGeometry x="1610" y="910" width="100" height="40" as="geometry" />
        </mxCell>
        <mxCell id="IZEF8j3LVq1unYXU-ZDd-151" value="Saat" style="ellipse;whiteSpace=wrap;html=1;align=center;" parent="1" vertex="1">
          <mxGeometry x="1770" y="980" width="100" height="40" as="geometry" />
        </mxCell>
        <mxCell id="IZEF8j3LVq1unYXU-ZDd-152" value="Gün" style="ellipse;whiteSpace=wrap;html=1;align=center;" parent="1" vertex="1">
          <mxGeometry x="1730" y="930" width="100" height="40" as="geometry" />
        </mxCell>
        <mxCell id="IZEF8j3LVq1unYXU-ZDd-153" value="Dakika" style="ellipse;whiteSpace=wrap;html=1;align=center;" parent="1" vertex="1">
          <mxGeometry x="1730" y="1030" width="100" height="40" as="geometry" />
        </mxCell>
        <mxCell id="IZEF8j3LVq1unYXU-ZDd-154" value="M" style="endArrow=none;html=1;rounded=0;exitX=1;exitY=0.5;exitDx=0;exitDy=0;entryX=0;entryY=0.5;entryDx=0;entryDy=0;" parent="1" target="IZEF8j3LVq1unYXU-ZDd-148" edge="1">
          <mxGeometry x="0.8125" y="16" relative="1" as="geometry">
            <mxPoint x="1406.41" y="1035" as="sourcePoint" />
            <mxPoint x="1479" y="1025" as="targetPoint" />
            <mxPoint as="offset" />
          </mxGeometry>
        </mxCell>
        <mxCell id="IZEF8j3LVq1unYXU-ZDd-155" value="N" style="endArrow=none;html=1;rounded=0;exitX=1;exitY=0.5;exitDx=0;exitDy=0;entryX=0;entryY=0.5;entryDx=0;entryDy=0;" parent="1" source="IZEF8j3LVq1unYXU-ZDd-148" target="IZEF8j3LVq1unYXU-ZDd-149" edge="1">
          <mxGeometry x="-0.8072" y="12" relative="1" as="geometry">
            <mxPoint x="1470" y="980" as="sourcePoint" />
            <mxPoint x="1630" y="980" as="targetPoint" />
            <mxPoint as="offset" />
          </mxGeometry>
        </mxCell>
        <mxCell id="IZEF8j3LVq1unYXU-ZDd-156" value="" style="endArrow=none;html=1;rounded=0;entryX=0;entryY=1;entryDx=0;entryDy=0;exitX=1;exitY=0;exitDx=0;exitDy=0;" parent="1" source="IZEF8j3LVq1unYXU-ZDd-149" target="IZEF8j3LVq1unYXU-ZDd-152" edge="1">
          <mxGeometry relative="1" as="geometry">
            <mxPoint x="1710" y="970" as="sourcePoint" />
            <mxPoint x="1780" y="990" as="targetPoint" />
          </mxGeometry>
        </mxCell>
        <mxCell id="IZEF8j3LVq1unYXU-ZDd-157" value="" style="endArrow=none;html=1;rounded=0;entryX=0;entryY=0;entryDx=0;entryDy=0;exitX=1;exitY=1;exitDx=0;exitDy=0;" parent="1" source="IZEF8j3LVq1unYXU-ZDd-149" target="IZEF8j3LVq1unYXU-ZDd-153" edge="1">
          <mxGeometry relative="1" as="geometry">
            <mxPoint x="1810" y="1010" as="sourcePoint" />
            <mxPoint x="1780" y="990" as="targetPoint" />
          </mxGeometry>
        </mxCell>
        <mxCell id="IZEF8j3LVq1unYXU-ZDd-158" value="" style="endArrow=none;html=1;rounded=0;entryX=0;entryY=0.5;entryDx=0;entryDy=0;exitX=1;exitY=0.5;exitDx=0;exitDy=0;" parent="1" source="IZEF8j3LVq1unYXU-ZDd-149" target="IZEF8j3LVq1unYXU-ZDd-151" edge="1">
          <mxGeometry relative="1" as="geometry">
            <mxPoint x="1620" y="990" as="sourcePoint" />
            <mxPoint x="1780" y="990" as="targetPoint" />
          </mxGeometry>
        </mxCell>
        <mxCell id="IZEF8j3LVq1unYXU-ZDd-159" value="" style="endArrow=none;html=1;rounded=0;entryX=0.5;entryY=1;entryDx=0;entryDy=0;exitX=0.5;exitY=0;exitDx=0;exitDy=0;" parent="1" source="IZEF8j3LVq1unYXU-ZDd-149" target="IZEF8j3LVq1unYXU-ZDd-150" edge="1">
          <mxGeometry relative="1" as="geometry">
            <mxPoint x="1620" y="990" as="sourcePoint" />
            <mxPoint x="1780" y="990" as="targetPoint" />
          </mxGeometry>
        </mxCell>
        <mxCell id="IZEF8j3LVq1unYXU-ZDd-160" value="Cinsiyet" style="ellipse;whiteSpace=wrap;html=1;align=center;" parent="1" vertex="1">
          <mxGeometry x="1800" y="1769.9999999999995" width="100" height="40" as="geometry" />
        </mxCell>
        <mxCell id="IZEF8j3LVq1unYXU-ZDd-161" value="" style="endArrow=none;html=1;rounded=0;entryX=1;entryY=0.25;entryDx=0;entryDy=0;exitX=0;exitY=0.5;exitDx=0;exitDy=0;" parent="1" source="IZEF8j3LVq1unYXU-ZDd-160" edge="1">
          <mxGeometry relative="1" as="geometry">
            <mxPoint x="1804" y="1809.2399999999996" as="sourcePoint" />
            <mxPoint x="1715" y="1814.04" as="targetPoint" />
          </mxGeometry>
        </mxCell>
        <mxCell id="IZEF8j3LVq1unYXU-ZDd-162" value="Yetkinlik" style="ellipse;shape=doubleEllipse;margin=3;whiteSpace=wrap;html=1;align=center;" parent="1" vertex="1">
          <mxGeometry x="1130" y="1009.9999999999995" width="100" height="40" as="geometry" />
        </mxCell>
        <mxCell id="IZEF8j3LVq1unYXU-ZDd-163" value="" style="endArrow=none;html=1;rounded=0;exitX=0;exitY=0.5;exitDx=0;exitDy=0;entryX=1;entryY=0.5;entryDx=0;entryDy=0;" parent="1" source="IZEF8j3LVq1unYXU-ZDd-3" target="IZEF8j3LVq1unYXU-ZDd-162" edge="1">
          <mxGeometry relative="1" as="geometry">
            <mxPoint x="1291" y="1027.5" as="sourcePoint" />
            <mxPoint x="1250" y="1050" as="targetPoint" />
          </mxGeometry>
        </mxCell>
        <mxCell id="IZEF8j3LVq1unYXU-ZDd-164" value="Randevu" style="shape=rhombus;perimeter=rhombusPerimeter;whiteSpace=wrap;html=1;align=center;" parent="1" vertex="1">
          <mxGeometry x="1463.33" y="1540" width="106.67" height="80" as="geometry" />
        </mxCell>
        <mxCell id="e6oqtwwsqoPk5nZ6tcCP-1" value="Anonim" style="ellipse;whiteSpace=wrap;html=1;align=center;" vertex="1" parent="1">
          <mxGeometry x="1566.66" y="1393.81" width="75" height="40" as="geometry" />
        </mxCell>
        <mxCell id="e6oqtwwsqoPk5nZ6tcCP-2" value="" style="endArrow=none;html=1;rounded=0;exitX=0.271;exitY=0.074;exitDx=0;exitDy=0;exitPerimeter=0;entryX=0.417;entryY=0.94;entryDx=0;entryDy=0;entryPerimeter=0;" edge="1" parent="1" source="e6oqtwwsqoPk5nZ6tcCP-1" target="IZEF8j3LVq1unYXU-ZDd-75">
          <mxGeometry relative="1" as="geometry">
            <mxPoint x="1537" y="1387" as="sourcePoint" />
            <mxPoint x="1598" y="1360" as="targetPoint" />
          </mxGeometry>
        </mxCell>
      </root>
    </mxGraphModel>
  </diagram>
</mxfile>
